<?xml version="1.0" encoding="UTF-8"?><svg id="Layer_2" xmlns="http://www.w3.org/2000/svg" viewBox="0 0 149.72 149.72"><defs><style>.cls-1{fill:#A69856;}</style></defs><g id="Layer_1-2"><path class="cls-1" d="M105.83,129.06h-61.95c-12.81,0-23.23-10.42-23.23-23.23v-22.66l33.24-8.31-33.24-8.31v-22.66c0-12.81,10.42-23.23,23.23-23.23h61.95c12.81,0,23.23,10.42,23.23,23.23v22.66l-33.24,8.31,33.24,8.31v22.66c0,12.81-10.42,23.23-23.23,23.23ZM99.77,123.9h6.06c9.96,0,18.07-8.11,18.07-18.07v-18.64l-15.49-3.87v22.51c0,7.29-3.37,13.81-8.64,18.07ZM80.01,123.15c1.64.49,3.38.76,5.18.76,9.96,0,18.07-8.11,18.07-18.07v-18.64l-15.49-3.87v22.51c0,6.87-3,13.06-7.76,17.31ZM64.53,123.9c1.8,0,3.54-.26,5.18-.76-4.76-4.26-7.76-10.44-7.76-17.31v-22.51l-15.49,3.87v18.64c0,9.96,8.11,18.07,18.07,18.07ZM25.81,87.2v18.64c0,9.96,8.11,18.07,18.07,18.07h6.06c-5.27-4.26-8.64-10.78-8.64-18.07v-22.51l-15.49,3.87ZM67.11,82.03v23.8c0,6.13,3.07,11.55,7.74,14.82,4.68-3.27,7.74-8.69,7.74-14.82v-23.8l-7.74-1.94-7.74,1.94ZM67.11,67.68l7.74,1.94,7.74-1.94v-23.8c0-6.13-3.07-11.55-7.74-14.82-4.68,3.27-7.74,8.69-7.74,14.82v23.8ZM99.77,25.81c5.27,4.26,8.64,10.78,8.64,18.07v22.51l15.49-3.87v-18.64c0-9.96-8.11-18.07-18.07-18.07h-6.06ZM80.01,26.57c4.76,4.26,7.76,10.44,7.76,17.31v22.51l15.49-3.87v-18.64c0-9.96-8.11-18.07-18.07-18.07-1.8,0-3.54.26-5.18.76ZM46.46,62.52l15.49,3.87v-22.51c0-6.87,3-13.06,7.76-17.31-1.64-.49-3.38-.76-5.18-.76-9.96,0-18.07,8.1-18.07,18.06v18.64ZM25.81,62.52l15.49,3.87v-22.51c0-7.29,3.37-13.8,8.64-18.06h-6.06c-9.96,0-18.07,8.11-18.07,18.07v18.64Z"/><path class="cls-1" d="M105.83,149.72h-61.95c-24.2,0-43.88-19.68-43.88-43.88v-61.95C0,19.68,19.68,0,43.88,0h61.95c24.2,0,43.88,19.68,43.88,43.88v61.95c0,24.2-19.68,43.88-43.88,43.88ZM43.88,5.16C22.53,5.16,5.16,22.53,5.16,43.88v61.95c0,21.35,17.37,38.72,38.72,38.72h61.95c21.35,0,38.72-17.37,38.72-38.72v-61.95c0-21.35-17.37-38.72-38.72-38.72h-61.95Z"/></g></svg>